<svg xmlns="http://www.w3.org/2000/svg" viewBox="0 0 728 90" width="728" height="90">
  <defs>
    <linearGradient id="bannerBg" x1="0%" y1="0%" x2="100%" y2="0%">
      <stop offset="0%" style="stop-color:#1e40af"/>
      <stop offset="50%" style="stop-color:#7c3aed"/>
      <stop offset="100%" style="stop-color:#f97316"/>
    </linearGradient>
    <filter id="textShadow">
      <feDropShadow dx="1" dy="1" stdDeviation="1" flood-color="#000000" flood-opacity="0.3"/>
    </filter>
  </defs>
  
  <!-- Background -->
  <rect width="728" height="90" fill="url(#bannerBg)" rx="8"/>
  
  <!-- Decorative elements -->
  <circle cx="680" cy="45" r="30" fill="white" opacity="0.1"/>
  <circle cx="50" cy="20" r="15" fill="white" opacity="0.15"/>
  <circle cx="70" cy="70" r="10" fill="white" opacity="0.1"/>
  
  <!-- Logo -->
  <g transform="translate(20, 25)">
    <path d="M0 7.5 C0 3.5, 3.5 0, 7.5 0 C11.5 0, 15 3.5, 15 7.5 C15 11.5, 11.5 15, 7.5 15 C11.5 15, 15 18.5, 15 22.5 C15 26.5, 11.5 30, 7.5 30 C3.5 30, 0 26.5, 0 22.5 C0 18.5, 3.5 15, 7.5 15 C3.5 15, 0 11.5, 0 7.5 Z" 
          fill="white" 
          stroke="rgba(255,255,255,0.5)" 
          stroke-width="0.5"/>
    <circle cx="7.5" cy="7.5" r="1.5" fill="rgba(255,255,255,0.8)"/>
    <circle cx="7.5" cy="22.5" r="1.5" fill="rgba(255,255,255,0.8)"/>
  </g>
  
  <!-- Main Text -->
  <text x="55" y="35" font-family="Arial, sans-serif" font-size="18" font-weight="bold" fill="white" filter="url(#textShadow)">
    Backlink ∞
  </text>
  <text x="55" y="55" font-family="Arial, sans-serif" font-size="12" font-weight="normal" fill="rgba(255,255,255,0.9)">
    SEO Tools Suite - Earn 35% Commission
  </text>
  
  <!-- CTA Button -->
  <rect x="580" y="25" width="120" height="40" rx="20" fill="white" opacity="0.9"/>
  <text x="640" y="35" font-family="Arial, sans-serif" font-size="12" font-weight="bold" fill="#1e40af" text-anchor="middle">
    JOIN NOW
  </text>
  <text x="640" y="50" font-family="Arial, sans-serif" font-size="10" font-weight="normal" fill="#7c3aed" text-anchor="middle">
    Start Earning
  </text>
  
  <!-- Border -->
  <rect width="728" height="90" fill="none" stroke="rgba(255,255,255,0.3)" stroke-width="1" rx="8"/>
</svg>
